<?xml version="1.0" encoding="UTF-8"?>
<svg width="73px" height="56px" viewBox="0 0 73 56" version="1.1" xmlns="http://www.w3.org/2000/svg" xmlns:xlink="http://www.w3.org/1999/xlink">
    <!-- Generator: Sketch 52.1 (67048) - http://www.bohemiancoding.com/sketch -->
    <title>logo</title>
    <desc>Created with Sketch.</desc>
    <g id="logo" stroke="none" stroke-width="1" fill="none" fill-rule="evenodd">
        <g fill="#999999" id="Group">
            <g>
                <g transform="translate(1.473684, 18.175439)">
                    <path d="M0.195508772,3.0397193 L0.195508772,0.119368421 L1.29782456,0.119368421 C1.5242807,0.119368421 1.70161404,0.12722807 1.89859649,0.255438596 C2.09410526,0.388070175 2.20610526,0.591929825 2.20610526,0.830175439 C2.20610526,1.16224561 2.01059649,1.40933333 1.68982456,1.48498246 L1.68982456,1.49431579 C2.05136842,1.57045614 2.29354386,1.86077193 2.29354386,2.23508772 C2.29354386,2.48364912 2.21003509,2.69929825 2.01403509,2.85305263 C1.79150877,3.02842105 1.56210526,3.04021053 1.29340351,3.04021053 L0.195508772,3.0397193 Z M1.12835088,1.37101754 C1.31108772,1.37101754 1.51101754,1.3754386 1.66084211,1.26 C1.78070175,1.17354386 1.84308772,1.01782456 1.84308772,0.877824561 C1.84308772,0.70245614 1.77578947,0.579157895 1.62547368,0.489263158 C1.49824561,0.41754386 1.36757895,0.41754386 1.22266667,0.41754386 L0.561473684,0.41754386 L0.561473684,1.37052632 L1.12835088,1.37101754 Z M1.27768421,2.72926316 C1.43831579,2.72926316 1.61859649,2.7125614 1.74631579,2.60989474 C1.86912281,2.51754386 1.92807018,2.3765614 1.92807018,2.21838596 C1.92807018,2.04350877 1.85192982,1.86961404 1.71635088,1.76252632 C1.57635088,1.65150877 1.39263158,1.65150877 1.22610526,1.65150877 L0.561473684,1.65150877 L0.561473684,2.72877193 L1.27768421,2.72926316 Z" id="Shape" fill-rule="nonzero"></path>
                    <path d="M6.01754386,1.96736842 C6.01754386,2.25670175 6.00035088,2.52491228 5.80287719,2.75922807 C5.60785965,2.99354386 5.31361404,3.08294737 5.01592982,3.08294737 C4.73101754,3.08294737 4.4274386,3.02203509 4.23192982,2.80196491 C4.01824561,2.56421053 4.00203509,2.26947368 4.00203509,1.96736842 L4.00203509,0.119368421 L4.368,0.119368421 L4.368,1.96736842 C4.368,2.14175439 4.37291228,2.38049123 4.47852632,2.53277193 C4.59838596,2.70814035 4.84596491,2.75922807 5.04491228,2.75922807 C5.23207018,2.75922807 5.44526316,2.69929825 5.5685614,2.55045614 C5.71003509,2.38392982 5.71003509,2.16680702 5.71003509,1.96687719 L5.71003509,0.118877193 L6.0165614,0.118877193 L6.0165614,1.96736842 L6.01754386,1.96736842 Z" id="Path"></path>
                    <polygon id="Path" points="7.89108772 3.0397193 7.89108772 0.119368421 8.25705263 0.119368421 8.25705263 3.0397193"></polygon>
                    <polygon id="Path" points="11.8607018 3.0397193 10.1355088 3.0397193 10.1355088 0.119368421 10.5024561 0.119368421 10.5024561 2.716 11.8607018 2.716"></polygon>
                    <path d="M13.4449123,0.119368421 L14.3694035,0.119368421 C14.7849825,0.119368421 15.0974035,0.203859649 15.3724912,0.532 C15.6259649,0.825754386 15.7276491,1.1917193 15.7276491,1.57045614 C15.7276491,1.9285614 15.6333333,2.28175439 15.4260351,2.57550877 C15.1907368,2.90364912 14.8881404,3.0397193 14.4877895,3.0397193 L13.4449123,3.0397193 L13.4449123,0.119368421 Z M14.346807,2.72926316 C14.6842807,2.72926316 14.9515088,2.65312281 15.1421053,2.35887719 C15.2889825,2.13782456 15.3562807,1.83621053 15.3562807,1.57094737 C15.3562807,1.27375439 15.2796491,0.962807018 15.0880702,0.723578947 C14.8881404,0.472561404 14.6538246,0.425894737 14.346807,0.425894737 L13.8094035,0.425894737 L13.8094035,2.72926316 L14.346807,2.72926316 Z" id="Shape" fill-rule="nonzero"></path>
                    <polygon id="Path" points="17.4385965 3.0397193 17.4385965 0.119368421 17.8045614 0.119368421 17.8045614 3.0397193"></polygon>
                    <polygon id="Path" points="21.8164211 3.0397193 21.4583158 3.0397193 19.9718596 0.492701754 19.9718596 3.0397193 19.666807 3.0397193 19.666807 0.119368421 20.1251228 0.119368421 21.5079298 2.49985965 21.5079298 0.119368421 21.8164211 0.119368421 21.8164211 3.0397193"></polygon>
                    <path d="M25.8778947,3.06133333 L25.6529123,3.06133333 L25.5541754,2.69929825 C25.3719298,2.96701754 25.0649123,3.08294737 24.7470877,3.08294737 C24.3531228,3.08294737 24.0657544,2.94392982 23.834386,2.63150877 C23.6133333,2.32940351 23.5288421,1.97964912 23.5288421,1.60926316 C23.5288421,0.842947368 23.9282105,0.0761403509 24.7922807,0.0761403509 C25.3503158,0.0761403509 25.7118596,0.392 25.8479298,0.915157895 L25.5035789,1.00014035 C25.430386,0.634175439 25.1484211,0.382666667 24.7672281,0.382666667 C24.1065263,0.382666667 23.9232982,1.05515789 23.9232982,1.5925614 C23.9232982,1.84357895 23.9699649,2.14175439 24.0893333,2.36673684 C24.2209825,2.61382456 24.4818246,2.78477193 24.7706667,2.78477193 C25.2221053,2.78477193 25.5035789,2.47775439 25.5035789,2.03515789 L25.5035789,1.87354386 L24.7760702,1.87354386 L24.7760702,1.56701754 L25.8778947,1.56701754 L25.8778947,3.06133333 Z" id="Path"></path>
                    <path d="M31.9818947,2.12898246 C31.8463158,2.68259649 31.517193,3.08294737 30.9007018,3.08294737 C30.0587368,3.08294737 29.7119298,2.26947368 29.7119298,1.54982456 C29.7119298,0.79677193 30.0842807,0.0761403509 30.9296842,0.0761403509 C31.517193,0.0761403509 31.8625263,0.472561404 31.982386,1.00750877 L31.6390175,1.07235088 C31.5363509,0.701473684 31.3521404,0.382175439 30.9178947,0.382175439 C30.2832281,0.382175439 30.1132632,1.07235088 30.1132632,1.57978947 C30.1132632,1.80919298 30.1520702,2.09361404 30.2493333,2.30680702 C30.3682105,2.56764912 30.5956491,2.77494737 30.9007018,2.77494737 C31.3487018,2.77494737 31.5564912,2.43845614 31.650807,2.0562807 L31.9818947,2.12898246 Z" id="Path"></path>
                    <path d="M33.5381053,1.60042105 C33.5381053,0.871929825 33.8962105,0.0761403509 34.7376842,0.0761403509 C35.56,0.0761403509 35.9397193,0.825263158 35.9397193,1.54540351 C35.9397193,2.26112281 35.5732632,3.08294737 34.7425965,3.08294737 C33.9050526,3.08294737 33.5381053,2.33333333 33.5381053,1.60042105 Z M35.5565614,1.56701754 C35.5565614,1.30715789 35.5133333,1.00407018 35.3826667,0.770736842 C35.2495439,0.540350877 35.0245614,0.377754386 34.7509474,0.377754386 C34.0995789,0.377754386 33.9202807,1.08119298 33.9202807,1.60435088 C33.9202807,2.10736842 34.1251228,2.7842807 34.7430877,2.7842807 C35.3694035,2.78477193 35.5565614,2.06905263 35.5565614,1.56701754 Z" id="Shape" fill-rule="nonzero"></path>
                    <polygon id="Path" points="39.8037193 3.0397193 39.445614 3.0397193 37.9596491 0.492701754 37.9596491 3.0397193 37.6526316 3.0397193 37.6526316 0.119368421 38.1129123 0.119368421 39.497193 2.49985965 39.497193 0.119368421 39.8042105 0.119368421"></polygon>
                    <polygon id="Path" points="42.5693333 3.0397193 42.2018947 3.0397193 42.2018947 0.437192982 41.3727018 0.437192982 41.3727018 0.119368421 43.3990175 0.119368421 43.3990175 0.437192982 42.5698246 0.437192982 42.5698246 3.0397193"></polygon>
                    <path d="M46.6922105,3.0397193 L46.1513684,1.77578947 L45.3418246,1.77578947 L45.3418246,3.0397193 L44.9753684,3.0397193 L44.9753684,0.119368421 L46.070807,0.119368421 C46.3085614,0.119368421 46.5389474,0.148842105 46.7344561,0.296701754 C46.9314386,0.447017544 47.0454035,0.689684211 47.0454035,0.93677193 C47.0454035,1.28063158 46.8410526,1.5925614 46.5001404,1.68491228 L47.0748772,3.0397193 L46.6922105,3.0397193 Z M46.0270877,1.47810526 C46.2221053,1.47810526 46.385193,1.46533333 46.5291228,1.31550877 C46.6317895,1.21333333 46.6779649,1.07333333 46.6779649,0.932842105 C46.6779649,0.762385965 46.6155789,0.621403509 46.4741053,0.528561404 C46.3468772,0.437684211 46.2221053,0.434245614 46.0712982,0.434245614 L45.3423158,0.434245614 L45.3423158,1.47859649 L46.0270877,1.47810526 Z" id="Shape" fill-rule="nonzero"></path>
                    <path d="M50.8774737,3.0397193 L50.5036491,3.0397193 L50.2079298,2.18842105 L49.1277193,2.18842105 L48.8678596,3.0397193 L48.5608421,3.0397193 L49.5064561,0.119368421 L49.9269474,0.119368421 L50.8774737,3.0397193 Z M49.6803509,0.510877193 L49.2308772,1.91235088 L50.1283509,1.91235088 L49.6803509,0.510877193 Z" id="Shape" fill-rule="nonzero"></path>
                    <path d="M54.4712982,2.12898246 C54.3347368,2.68259649 54.0070877,3.08294737 53.389614,3.08294737 C52.5466667,3.08294737 52.2023158,2.26947368 52.2023158,1.54982456 C52.2023158,0.79677193 52.5727018,0.0761403509 53.4195789,0.0761403509 C54.0070877,0.0761403509 54.3514386,0.472561404 54.4722807,1.00750877 L54.1279298,1.07235088 C54.0247719,0.701473684 53.8405614,0.382175439 53.4063158,0.382175439 C52.7741053,0.382175439 52.6021754,1.07235088 52.6021754,1.57978947 C52.6021754,1.80919298 52.6414737,2.09361404 52.7382456,2.30680702 C52.8571228,2.56764912 53.0835789,2.77494737 53.389614,2.77494737 C53.8366316,2.77494737 54.0458947,2.43845614 54.1387368,2.0562807 L54.4712982,2.12898246 Z" id="Path"></path>
                    <polygon id="Path" points="57.0644912 3.0397193 56.6970526 3.0397193 56.6970526 0.437192982 55.8678596 0.437192982 55.8678596 0.119368421 57.8951579 0.119368421 57.8951579 0.437192982 57.0659649 0.437192982 57.0659649 3.0397193"></polygon>
                    <path d="M59.2440702,1.60042105 C59.2440702,0.871929825 59.6026667,0.0761403509 60.4451228,0.0761403509 C61.2674386,0.0761403509 61.645193,0.825263158 61.645193,1.54540351 C61.645193,2.26112281 61.2787368,3.08294737 60.4490526,3.08294737 C59.6100351,3.08294737 59.2440702,2.33333333 59.2440702,1.60042105 Z M61.2635088,1.56701754 C61.2635088,1.30715789 61.2202807,1.00407018 61.0891228,0.770736842 C60.9574737,0.540350877 60.732,0.377754386 60.4588772,0.377754386 C59.8084912,0.377754386 59.629193,1.08119298 59.629193,1.60435088 C59.629193,2.10736842 59.8340351,2.7842807 60.4515088,2.7842807 C61.0758596,2.78477193 61.2635088,2.06905263 61.2635088,1.56701754 Z" id="Shape" fill-rule="nonzero"></path>
                    <path d="M65.0842807,3.0397193 L64.5424561,1.77578947 L63.7334035,1.77578947 L63.7334035,3.0397193 L63.3679298,3.0397193 L63.3679298,0.119368421 L64.4618947,0.119368421 C64.6996491,0.119368421 64.9295439,0.148842105 65.1260351,0.296701754 C65.3220351,0.447017544 65.4369825,0.689684211 65.4369825,0.93677193 C65.4369825,1.28063158 65.2326316,1.5925614 64.893193,1.68491228 L65.4684211,3.0397193 L65.0842807,3.0397193 Z M64.4196491,1.47810526 C64.6141754,1.47810526 64.7772632,1.46533333 64.9216842,1.31550877 C65.0233684,1.21333333 65.0705263,1.07333333 65.0705263,0.932842105 C65.0705263,0.762385965 65.0061754,0.621403509 64.8661754,0.528561404 C64.7384561,0.437684211 64.6136842,0.434245614 64.4614035,0.434245614 L63.7334035,0.434245614 L63.7334035,1.47859649 L64.4196491,1.47810526 Z" id="Shape" fill-rule="nonzero"></path>
                    <path d="M67.2869474,2.18007018 C67.4058246,2.58533333 67.7418246,2.77249123 68.1505263,2.77249123 C68.3258947,2.77249123 68.5381053,2.73417544 68.6751579,2.62757895 C68.7866667,2.54210526 68.8544561,2.3922807 68.8544561,2.25178947 C68.8544561,1.95803509 68.610807,1.83915789 68.354386,1.77578947 L67.8700351,1.6554386 C67.6745263,1.60926316 67.4957193,1.56308772 67.3434386,1.42161404 C67.1887018,1.28603509 67.1042105,1.08512281 67.1042105,0.881263158 C67.1042105,0.318315789 67.5890526,0.0756491228 68.096,0.0756491228 C68.5852632,0.0756491228 68.9787368,0.318315789 69.1369123,0.790385965 L68.8028772,0.881263158 C68.7404912,0.561473684 68.3990877,0.365964912 68.0881404,0.365964912 C67.8110877,0.365964912 67.462807,0.510385965 67.462807,0.829684211 C67.462807,1.15733333 67.7182456,1.22954386 67.990386,1.29389474 L68.4290526,1.4 C68.6211228,1.44224561 68.8127018,1.49775439 68.9605614,1.62547368 C69.1437895,1.77529825 69.2336842,1.97522807 69.2336842,2.20512281 C69.2336842,2.46891228 69.1192281,2.70764912 68.9060351,2.86975439 C68.6928421,3.03185965 68.4069474,3.08294737 68.1451228,3.08294737 C67.5472982,3.08294737 67.1557895,2.81866667 66.9607719,2.25178947 L67.2869474,2.18007018 Z" id="Path"></path>
                </g>
                <g>
                    <path d="M0,12.7925614 C0.408701754,12.8578947 0.497614035,12.8578947 0.755017544,12.8578947 C1.7674386,12.8578947 1.94329825,12.4688421 1.94329825,11.0025263 L1.94329825,0.237263158 L4.09929825,0.237263158 L4.09929825,10.9160702 C4.09929825,12.1018947 4.09929825,14.7338947 1.16421053,14.7338947 C0.991789474,14.7338947 0.474526316,14.7338947 4.36298171e-16,14.5825965 L0,12.7925614 Z" id="Path"></path>
                    <path d="M9.43305263,14.6263158 L8.93691228,10.6567018 L7.21122807,10.6567018 L6.75929825,14.6263158 L4.83761404,14.6263158 L7.05992982,0.237263158 L9.17368421,0.237263158 L11.4603509,14.6263158 L9.43305263,14.6263158 Z M8.74287719,8.91087719 L8.41915789,6.34224561 C8.33270175,5.6525614 8.03207018,2.82652632 7.98736842,2.41635088 C7.96477193,2.82652632 7.94463158,3.19249123 7.87929825,3.86105263 C7.74912281,5.24238596 7.72849123,5.39319298 7.64203509,6.36385965 L7.36203509,8.91087719 L8.74287719,8.91087719 Z" id="Shape" fill-rule="nonzero"></path>
                    <path d="M18.7084211,14.6263158 L18.7084211,9.19038596 C18.7084211,8.45649123 18.7501754,6.08435088 18.7732632,3.94750877 C18.7295439,4.20687719 18.2756491,7.70147368 18.0624561,9.19038596 L17.22,14.6263158 L15.6235088,14.6263158 L14.7392982,9.06070175 C14.2421754,5.9325614 14.2421754,5.91094737 14.0491228,3.94750877 C14.1134737,6.77403509 14.1567018,8.43487719 14.1567018,9.12603509 L14.1567018,14.6263158 L12.4737544,14.6263158 L12.4737544,0.237263158 L14.8036491,0.237263158 L15.9899649,7.78694737 C16.1628772,8.75810526 16.2910877,10.2032982 16.442386,11.8646316 C16.5072281,10.4420351 16.6369123,9.49150877 16.9169123,7.78694737 L18.0624561,0.237263158 L20.4562105,0.237263158 L20.4562105,14.6263158 L18.7084211,14.6263158 Z" id="Path"></path>
                    <polygon id="Path" points="22.1804211 14.6263158 22.1804211 0.237263158 27.0774737 0.237263158 27.0774737 2.07052632 24.3369123 2.07052632 24.3369123 6.16982456 26.3224561 6.16982456 26.3224561 8.00259649 24.3369123 8.00259649 24.3369123 12.7920702 27.2715088 12.7920702 27.2715088 14.6258246"></polygon>
                    <path d="M30.0120702,11.1110877 C30.0356491,12.0164211 30.0764211,13.0082105 30.918386,13.0082105 C31.5442105,13.0082105 31.8453333,12.4044912 31.8453333,10.9592982 C31.8453333,9.31957895 31.3275789,8.86617544 29.9698246,7.72308772 C29.4314386,7.26919298 28.1792982,6.01803509 28.1792982,3.79670175 C28.1792982,1.79052632 28.9338246,0.0643508772 30.961614,0.0643508772 C33.0321404,0.0643508772 33.6373333,1.76842105 33.7439298,3.21410526 L31.7377544,3.47298246 C31.5864561,1.87649123 31.2848421,1.87649123 30.9837193,1.87649123 C30.4644912,1.87649123 30.3141754,2.54603509 30.3141754,3.60217544 C30.3141754,4.63866667 30.5514386,5.13431579 31.7377544,6.12659649 C33.0100351,7.22694737 33.9807018,8.28505263 33.9807018,10.5717193 C33.9807018,12.3622456 33.593614,14.7987368 30.94,14.7987368 C28.4357193,14.7987368 28.0058947,12.7061053 28.0058947,11.3252632 L30.0120702,11.1110877 Z" id="Path"></path>
                    <path d="M46.1837895,11.1110877 C46.2034386,12.0164211 46.2476491,13.0082105 47.089614,13.0082105 C47.7144561,13.0082105 48.0170526,12.4044912 48.0170526,10.9592982 C48.0170526,9.31957895 47.498807,8.86617544 46.1420351,7.72308772 C45.6002105,7.26919298 44.3505263,6.01803509 44.3505263,3.79670175 C44.3505263,1.79052632 45.1035789,0.0643508772 47.1318596,0.0643508772 C49.2043509,0.0643508772 49.8085614,1.76842105 49.9161404,3.21410526 L47.9075088,3.47298246 C47.7557193,1.87649123 47.4565614,1.87649123 47.1524912,1.87649123 C46.6357193,1.87649123 46.4849123,2.54603509 46.4849123,3.60217544 C46.4849123,4.63866667 46.7226667,5.13431579 47.9075088,6.12659649 C49.1807719,7.22694737 50.1504561,8.28505263 50.1504561,10.5717193 C50.1504561,12.3622456 49.7633684,14.7987368 47.1097544,14.7987368 C44.6069474,14.7987368 44.1771228,12.7061053 44.1771228,11.3252632 L46.1837895,11.1110877 Z" id="Path"></path>
                    <path d="M54.3578246,0.0648421053 C56.6454737,0.0648421053 57.6372632,1.87649123 57.6372632,7.44308772 C57.6372632,13.0087018 56.6454737,14.7992281 54.3578246,14.7992281 C51.4458246,14.7992281 51.1,11.6710877 51.1,7.44308772 C51.1,3.36638596 51.3814737,0.0648421053 54.3578246,0.0648421053 Z M53.5816842,12.1465965 C53.6671579,12.5562807 53.8184561,13.0087018 54.3578246,13.0087018 C54.8981754,13.0087018 55.0484912,12.5764211 55.1359298,12.1465965 C55.3304561,11.1749474 55.3304561,8.06891228 55.3304561,7.81003509 C55.3304561,5.76063158 55.3078596,4.85333333 55.2214035,3.32217544 C55.177193,2.26554386 54.9192982,1.85536842 54.3578246,1.85536842 C53.8184561,1.85536842 53.6671579,2.26554386 53.5816842,2.71845614 C53.4077895,3.62378947 53.4077895,7.35564912 53.4077895,7.44308772 C53.4082807,8.56554386 53.4082807,11.1749474 53.5816842,12.1465965 Z" id="Shape" fill-rule="nonzero"></path>
                    <path d="M63.4922105,14.6263158 L61.5715088,8.26245614 C61.5071579,8.04680702 61.0532632,6.60161404 60.6455439,4.63866667 C60.7108772,6.27789474 60.8169825,9.08182456 60.8169825,9.98764912 L60.8169825,14.6263158 L59.0470877,14.6263158 L59.0470877,0.237263158 L60.8602105,0.237263158 L62.6934737,6.70968421 C63.1901053,8.45649123 63.3630175,9.10442105 63.6862456,10.4852632 C63.5786667,8.78021053 63.4917193,6.92582456 63.4917193,5.35045614 L63.4917193,0.237263158 L65.2395088,0.237263158 L65.2395088,14.6263158 L63.4922105,14.6263158 Z" id="Path"></path>
                    <path d="M68.4064561,11.1110877 C68.4275789,12.0164211 68.4712982,13.0082105 69.3122807,13.0082105 C69.9366316,13.0082105 70.2397193,12.4044912 70.2397193,10.9592982 C70.2397193,9.31957895 69.7224561,8.86617544 68.3627368,7.72308772 C67.8243509,7.26919298 66.5717193,6.01803509 66.5717193,3.79670175 C66.5717193,1.79052632 67.3267368,0.0643508772 69.3550175,0.0643508772 C71.4255439,0.0643508772 72.0302456,1.76842105 72.1368421,3.21410526 L70.1321404,3.47249123 C69.9808421,1.876 69.6787368,1.876 69.3771228,1.876 C68.8588772,1.876 68.7070877,2.54554386 68.7070877,3.60168421 C68.7070877,4.63817544 68.946807,5.13382456 70.1321404,6.12610526 C71.4054035,7.22645614 72.3755789,8.2845614 72.3755789,10.5712281 C72.3755789,12.3617544 71.9860351,14.7982456 69.3338947,14.7982456 C66.8310877,14.7982456 66.4002807,12.705614 66.4002807,11.3247719 L68.4064561,11.1110877 Z" id="Path"></path>
                    <g transform="translate(35.859649, 0.000000)">
                        <path d="M6.15901754,11.7270877 C5.98659649,11.8140351 5.8485614,11.8494035 5.60736842,11.8494035 C5.01838596,11.8494035 4.70645614,11.5025965 4.4117193,11.0875088 C4.15284211,11.3812632 3.70484211,11.865614 2.75136842,11.865614 C0.900912281,11.865614 0.27754386,10.2229474 0.27754386,8.68294737 C0.27754386,6.95382456 0.952982456,6.01901754 1.69768421,4.98154386 C1.14407018,3.89150877 0.779578947,3.19985965 0.779578947,2.31761404 C0.779087719,1.24526316 1.42014035,0 2.71698246,0 C3.82470175,0 4.68926316,0.829192982 4.68926316,2.30091228 C4.68926316,3.13108772 4.41270175,3.99614035 3.32414035,5.20652632 L4.56842105,7.95740351 C4.68926316,7.40378947 4.75803509,6.24498246 4.75803509,6.05536842 L6.02294737,6.20912281 C5.93452632,7.55950877 5.74540351,8.47614035 5.31312281,9.53080702 C5.48603509,9.96407018 5.71150877,10.3270877 6.02294737,10.3270877 C6.09270175,10.3270877 6.12364912,10.3094035 6.15901754,10.2917193 L6.15901754,11.7270877 Z M2.33726316,6.40021053 C1.88533333,7.3517193 1.88533333,8.35480702 1.88533333,8.61417544 C1.88533333,9.42715789 2.09557895,10.4469474 2.88989474,10.4469474 C3.02792982,10.4469474 3.54863158,10.4135439 3.87578947,9.86091228 L2.33726316,6.40021053 Z M2.75185965,3.97894737 C2.97684211,3.68421053 3.39192982,3.1482807 3.39192982,2.28421053 C3.39192982,1.60926316 3.11635088,1.33221053 2.82308772,1.33221053 C2.51017544,1.33221053 2.25031579,1.66084211 2.25031579,2.28421053 C2.24933333,2.9925614 2.63052632,3.73529825 2.75185965,3.97894737 Z" id="Shape" fill-rule="nonzero"></path>
                        <rect id="Rectangle" x="0.278035088" y="12.7925614" width="5.88098246" height="1.83375439"></rect>
                    </g>
                </g>
            </g>
            <g transform="translate(1.473684, 24.561404)">
                <g id="Path">
                    <g>
                        <polygon points="15.8750175 13.009193 0.177824561 3.94554386 0.177824561 0.32077193 15.8750175 9.38442105"></polygon>
                        <polygon points="15.8750175 13.009193 31.5741754 3.94554386 31.5741754 0.32077193 15.8750175 9.38442105"></polygon>
                    </g>
                    <g transform="translate(0.000000, 7.368421)">
                        <polygon points="15.8750175 12.8922807 0.177824561 3.82814035 0.177824561 0.203859649 15.8750175 9.26750877"></polygon>
                        <polygon points="15.8750175 12.8922807 22.1548772 9.26652632 19.0159298 7.45389474 15.8750175 9.26750877"></polygon>
                    </g>
                </g>
                <g transform="translate(18.666667, 10.807018)" id="Path">
                    <polygon points="16.0479298 13.0784561 0.349263158 4.01529825 0.349263158 0.38954386 16.0479298 9.45368421"></polygon>
                    <polygon points="16.0479298 13.0784561 31.7451228 4.01529825 31.7451228 0.38954386 16.0479298 9.45368421"></polygon>
                </g>
                <g transform="translate(37.824561, 0.000000)" id="Path">
                    <polygon points="15.7271579 13.009193 0.0294736842 3.94554386 0.0294736842 0.32077193 15.7271579 9.38442105"></polygon>
                    <polygon points="15.7271579 13.009193 31.4253333 3.94554386 31.4253333 0.32077193 15.7271579 9.38442105"></polygon>
                </g>
                <g transform="translate(18.666667, 18.175439)" id="Path">
                    <polygon points="16.0479298 12.9610526 0.349263158 3.89887719 0.349263158 0.273122807 16.0479298 9.33529825"></polygon>
                    <polygon points="16.0479298 12.9610526 31.7451228 3.89887719 31.7451228 0.273122807 16.0479298 9.33529825"></polygon>
                </g>
                <g transform="translate(50.105263, 7.368421)" id="Path">
                    <polygon points="3.44645614 12.8922807 0.296701754 11.0732632 0.306526316 7.45389474 3.44645614 9.26750877"></polygon>
                    <polygon points="3.44645614 12.8922807 19.1446316 3.82814035 19.1446316 0.203859649 3.44645614 9.26750877"></polygon>
                </g>
            </g>
        </g>
    </g>
</svg>