<svg xmlns="http://www.w3.org/2000/svg" width="233" height="60" viewBox="0 0 233 60">      
    <g transform="translate(64.5 11.25)" class="logo-copy">
      <path fill="#E34526" d="M10.9637288 30.2852542L8.01050847 23.0130508 7.96474576 23.0130508 4.96169492 30.2852542 10.9637288 30.2852542zM7.11457627 20.2357627L9.05694915 20.2357627 15.8481356 36.0828814 13.3372881 36.0828814 11.7498305 32.1686441 4.2040678 32.1686441 2.63694915 36.0828814.127118644 36.0828814 7.11457627 20.2357627zM28.3779661 23.6618644C27.4769492 22.4994915 26.0033898 21.8445763 24.5430508 21.8445763 20.9837288 21.8445763 18.6366102 24.69 18.6366102 28.2950847 18.6366102 31.630678 20.8494915 34.4740678 24.5430508 34.4740678 26.359322 34.4740678 27.7464407 33.669661 28.6850847 32.349661L30.5023729 33.7113559C30.0284746 34.3652542 28.1288136 36.4845763 24.500339 36.4845763 19.460339 36.4845763 16.3505085 32.2825424 16.3505085 28.2950847 16.3505085 23.3669492 19.7318644 19.8330508 24.6091525 19.8330508 26.6949153 19.8330508 28.8874576 20.6191525 30.1667797 22.2991525L28.3779661 23.6618644zM43.6810169 23.6618644C42.7789831 22.4994915 41.3084746 21.8445763 39.8471186 21.8445763 36.2877966 21.8445763 33.940678 24.69 33.940678 28.2950847 33.940678 31.630678 36.1545763 34.4740678 39.8471186 34.4740678 41.6633898 34.4740678 43.0515254 33.669661 43.9901695 32.349661L45.8074576 33.7113559C45.3355932 34.3652542 43.4328814 36.4845763 39.8023729 36.4845763 34.7654237 36.4845763 31.6555932 32.2825424 31.6555932 28.2950847 31.6555932 23.3669492 35.0389831 19.8330508 39.9142373 19.8330508 42 19.8330508 44.1915254 20.6191525 45.4708475 22.2991525L43.6810169 23.6618644zM61.1908475 28.1608475C61.1908475 24.69 58.8437288 21.8445763 55.2183051 21.8445763 51.5867797 21.8445763 49.2386441 24.69 49.2386441 28.1608475 49.2386441 31.630678 51.5867797 34.4740678 55.2183051 34.4740678 58.8437288 34.4740678 61.1908475 31.630678 61.1908475 28.1608475M46.9515254 28.1608475C46.9515254 23.4615254 50.379661 19.8340678 55.2183051 19.8340678 60.0508475 19.8340678 63.4769492 23.4615254 63.4769492 28.1608475 63.4769492 32.8591525 60.0508475 36.4855932 55.2183051 36.4855932 50.379661 36.4855932 46.9515254 32.8591525 46.9515254 28.1608475M68.4976271 20.2357627L68.4976271 29.950678C68.4976271 31.9205085 69.4840678 34.4740678 72.4840678 34.4740678 75.4779661 34.4740678 76.4654237 31.9205085 76.4654237 29.950678L76.4654237 20.2357627 78.6152542 20.2357627 78.6152542 30.2852542C78.6152542 33.9625424 75.9518644 36.4855932 72.4840678 36.4855932 69.0071186 36.4855932 66.3467797 33.9625424 66.3467797 30.2852542L66.3467797 20.2357627 68.4976271 20.2357627z"/>
      <polygon fill="#E34526" points="82.461 20.236 85.282 20.236 94.018 33.267 94.06 33.267 94.06 20.236 96.211 20.236 96.211 36.083 93.479 36.083 84.66 23.058 84.612 23.058 84.612 36.083 82.461 36.083"/>
      <polygon fill="#E34526" points="103.583 22.247 98.481 22.247 98.481 20.236 110.837 20.236 110.837 22.247 105.736 22.247 105.736 36.083 103.583 36.083"/>
      <path fill="#E34526" d="M120.510508,30.2852542 L117.554237,23.0130508 L117.508475,23.0130508 L114.510508,30.2852542 L120.510508,30.2852542 Z M116.661356,20.2357627 L118.60678,20.2357627 L125.391864,36.0828814 L122.882034,36.0828814 L121.294576,32.1686441 L113.750847,32.1686441 L112.181695,36.0828814 L109.670847,36.0828814 L116.661356,20.2357627 Z"/>
      <polygon fill="#E34526" points="127.537 20.236 130.358 20.236 139.09 33.267 139.132 33.267 139.132 20.236 141.281 20.236 141.281 36.083 138.549 36.083 129.735 23.058 129.687 23.058 129.687 36.083 127.537 36.083"/>
      <polygon fill="#E34526" points="148.659 22.247 143.554 22.247 143.554 20.236 155.912 20.236 155.912 22.247 150.811 22.247 150.811 36.083 148.659 36.083"/>
      <path fill="#E34526" d="M158.82,32.7747458 C159.580678,33.9381356 160.904746,34.4740678 162.18,34.4740678 C163.586441,34.4740678 165.33661,33.5791525 165.33661,31.8310169 C165.33661,28.1801695 157.520339,30.4408475 157.520339,24.2659322 C157.520339,22.4079661 159.088475,19.8330508 162.895932,19.8330508 C164.619661,19.8330508 166.279322,20.19 167.464068,21.6452542 L165.715932,23.2327119 C165.175932,22.4079661 164.125424,21.8445763 162.895932,21.8445763 C160.52339,21.8445763 159.805424,23.2825424 159.805424,24.2659322 C159.805424,28.269661 167.622712,25.8788136 167.622712,31.59 C167.622712,34.6561017 165.155593,36.4845763 162.110847,36.4845763 C160.072881,36.4845763 158.130508,35.7910169 157.050508,34.2940678 L158.82,32.7747458 Z"/>
      <path fill="#54BDD7" d="M13.179661 4.10898305C12.2816949 2.94762712 10.8061017 2.29779661 9.35084746 2.29779661 5.79254237 2.29779661 3.44135593 5.14322034 3.44135593 8.74525424 3.44135593 12.0828814 5.65423729 14.9272881 9.35084746 14.9272881 11.1640678 14.9272881 12.5542373 14.1167797 13.4959322 12.7967797L15.3071186 14.1645763C14.8362712 14.8133898 12.9335593 16.9377966 9.3040678 16.9377966 4.26813559 16.9377966 1.15322034 12.7286441 1.15322034 8.74525424 1.15322034 3.81610169 4.53966102.280169492 9.41694915.280169492 11.5037288.280169492 13.6952542 1.06423729 14.9705085 2.74728814L13.179661 4.10898305zM19.8976271 7.66728814L22.719661 7.66728814C24.42 7.66728814 26.1254237 7.26559322 26.1254237 5.12084746 26.1254237 2.97101695 24.42 2.56525424 22.719661 2.56525424L19.8976271 2.56525424 19.8976271 7.66728814zM17.7447458.682881356L23.3216949.682881356C27.3742373.682881356 28.4044068 3.12254237 28.4044068 5.12084746 28.4044068 7.13644068 26.9094915 9.03610169 24.5094915 9.30762712L29.0064407 16.5361017 26.3247458 16.5361017 22.2915254 9.54966102 19.8976271 9.54966102 19.8976271 16.5361017 17.7447458 16.5361017 17.7447458.682881356zM44.6105085 8.6140678C44.6105085 5.14220339 42.260339 2.29779661 38.6359322 2.29779661 35.0074576 2.29779661 32.6613559 5.14220339 32.6613559 8.6140678 32.6613559 12.0818644 35.0074576 14.9262712 38.6359322 14.9262712 42.260339 14.9262712 44.6105085 12.0818644 44.6105085 8.6140678M30.3732203 8.6140678C30.3732203 3.90559322 33.800339.281186441 38.6359322.281186441 43.4664407.281186441 46.8986441 3.90559322 46.8986441 8.6140678 46.8986441 13.3113559 43.4664407 16.9377966 38.6359322 16.9377966 33.800339 16.9377966 30.3732203 13.3113559 30.3732203 8.6140678"/>
      <polygon fill="#54BDD7" points="50.008 .683 59.976 .683 59.976 2.699 52.161 2.699 52.161 7.667 59.435 7.667 59.435 9.687 52.161 9.687 52.161 16.536 50.008 16.536"/>
      <polygon fill="#54BDD7" points="66.674 2.699 61.573 2.699 61.573 .683 73.932 .683 73.932 2.699 68.825 2.699 68.825 16.535 66.674 16.535"/>
      <polygon fill="#54BDD7" points="78.044 6.189 76.295 6.189 76.295 .683 78.044 .683"/>
      <path fill="#54BDD7" d="M81.2522034,13.2259322 C82.0118644,14.3852542 83.3318644,14.9272881 84.6091525,14.9272881 C86.0166102,14.9272881 87.7677966,14.030339 87.7677966,12.2842373 C87.7677966,8.63237288 79.9474576,10.8950847 79.9474576,4.71813559 C79.9474576,2.85508475 81.5166102,0.281186441 85.3240678,0.281186441 C87.0467797,0.281186441 88.7094915,0.638135593 89.8952542,2.09847458 L88.1461017,3.6859322 C87.6071186,2.85508475 86.5576271,2.29779661 85.3240678,2.29779661 C82.9505085,2.29779661 82.2355932,3.73372881 82.2355932,4.71813559 C82.2355932,8.72186441 90.0498305,6.3320339 90.0498305,12.0391525 C90.0498305,15.1032203 87.5847458,16.9377966 84.5379661,16.9377966 C82.5010169,16.9377966 80.5576271,16.2442373 79.4827119,14.7462712 L81.2522034,13.2259322 Z"/>
    </g>
    <g>
      <path fill="#54BDD7" d="M59.2769492,29.6359322 C59.2769492,46.0077966 46.0037288,59.2738983 29.6338983,59.2738983 C13.2732203,59.2738983 0,46.0077966 0,29.6359322 C0,13.2671186 13.2732203,0 29.6338983,0 C46.0037288,0 59.2769492,13.2671186 59.2769492,29.6359322"/>
      <polygon fill="#E34526" points="40.984 51.505 13.895 35.864 13.895 23.409 40.984 39.048"/>
      <polygon fill="#FEFEFE" points="40.984 7.767 13.895 23.409 13.895 35.864 40.984 20.224"/>
    </g>  
</svg>
